<svg xmlns="http://www.w3.org/2000/svg" version="1.1" xmlns:xlink="http://www.w3.org/1999/xlink" xmlns:svgjs="http://svgjs.dev/svgjs" width="1000" height="999" viewBox="0 0 1000 999">
   <g transform="matrix(1,0,0,1,-0.215743440233382,-0.21552769679306039)">
      <svg viewBox="0 0 343 343" data-background-color="#010536" preserveAspectRatio="xMidYMid meet" height="999" width="1000" xmlns="http://www.w3.org/2000/svg" xmlns:xlink="http://www.w3.org/1999/xlink">
         <g id="tight-bounds" transform="matrix(1,0,0,1,0.0740000000000407,0.07400000000001228)">
            <svg viewBox="0 0 342.85155851775386 342.85155851775386" height="342.85155851775386" width="342.85155851775386">
               <g>
                  <svg></svg>
               </g>
               <g>
                  <svg viewBox="0 0 342.85155851775386 342.85155851775386" height="342.85155851775386" width="342.85155851775386">
                     <g>
                        <path d="M0 171.426c0-94.676 76.75-171.426 171.426-171.426 94.676 0 171.426 76.75 171.426 171.426 0 94.676-76.75 171.426-171.426 171.426-94.676 0-171.426-76.75-171.426-171.426zM171.426 338.734c92.402 0 167.308-74.906 167.308-167.308 0-92.402-74.906-167.308-167.308-167.308-92.402 0-167.308 74.906-167.308 167.308 0 92.402 74.906 167.308 167.308 167.308z" data-fill-palette-color="tertiary" fill="#fbfbf8" stroke="transparent"></path>
                        <ellipse rx="164.56874808852186" ry="164.56874808852186" cx="171.42577925887693" cy="171.42577925887693" fill="#fbfbf8" stroke="transparent" stroke-width="0" fill-opacity="1" data-fill-palette-color="tertiary"></ellipse>
                     </g>
                     <g transform="matrix(1,0,0,1,64.84655864529837,80.6631572052828)">
                        <svg viewBox="0 0 213.1584412271571 181.52524410718826" height="181.52524410718826" width="213.1584412271571">
                           <g>
                              <svg viewBox="0 0 213.1584412271571 181.52524410718826" height="181.52524410718826" width="213.1584412271571">
                                 <g>
                                    <svg viewBox="0 0 213.1584412271571 181.52524410718826" height="181.52524410718826" width="213.1584412271571">
                                       <g transform="matrix(1,0,0,1,0,109.84372476361165)">
                                          <svg viewBox="0 0 213.1584412271571 71.68151934357661" height="71.68151934357661" width="213.1584412271571">
                                             <g id="textblocktransform">
                                                <svg viewBox="0 0 213.1584412271571 71.68151934357661" height="71.68151934357661" width="213.1584412271571" id="textblock">
                                                   <g>
                                                      <svg viewBox="0 0 213.1584412271571 45.66268926442655" height="45.66268926442655" width="213.1584412271571">
                                                         <g transform="matrix(1,0,0,1,0,0)">
                                                            <svg width="213.1584412271571" viewBox="4 -34.650001525878906 161.74000549316406 34.650001525878906" height="45.66268926442655" data-palette-color="#010536">
                                                               <path d="M33.8 0L27.25 0Q23.9-5.95 20-11.75 16.1-17.55 11.7-22.7L11.7-22.7 11.7 0 4 0 4-34.65 10.35-34.65Q12-33 14-30.6 16-28.2 18.07-25.48 20.15-22.75 22.2-19.83 24.25-16.9 26.05-14.2L26.05-14.2 26.05-34.65 33.8-34.65 33.8 0ZM41.8 0L41.8-34.65 49.6-34.65 49.6 0 41.8 0ZM87.3 0L78.05 0Q77-1.7 75.57-3.68 74.15-5.65 72.47-7.63 70.8-9.6 69-11.43 67.2-13.25 65.4-14.65L65.4-14.65 65.4 0 57.6 0 57.6-34.65 65.4-34.65 65.4-21.55Q68.45-24.75 71.52-28.23 74.6-31.7 77.25-34.65L77.25-34.65 86.5-34.65Q82.95-30.45 79.37-26.55 75.8-22.65 71.85-18.7L71.85-18.7Q76-15.25 79.87-10.5 83.75-5.75 87.3 0L87.3 0ZM91.79 0L91.79-34.65 99.59-34.65 99.59 0 91.79 0ZM104.59-34.65L133.29-34.65 133.29-28 122.84-28 122.84 0 115.04 0 115.04-28 104.59-28 104.59-34.65ZM165.74 0L157.39 0Q156.84-1.8 156.16-3.7 155.49-5.6 154.84-7.5L154.84-7.5 141.34-7.5Q140.69-5.6 140.01-3.7 139.34-1.8 138.79 0L138.79 0 130.69 0Q132.64-5.6 134.39-10.35 136.14-15.1 137.81-19.3 139.49-23.5 141.11-27.28 142.74-31.05 144.49-34.65L144.49-34.65 151.94-34.65Q153.64-31.05 155.29-27.28 156.94-23.5 158.61-19.3 160.29-15.1 162.04-10.35 163.79-5.6 165.74 0L165.74 0ZM148.04-26.8L148.04-26.8Q147.79-26.05 147.29-24.75 146.79-23.45 146.14-21.75 145.49-20.05 144.71-18 143.94-15.95 143.14-13.7L143.14-13.7 152.99-13.7Q152.19-15.95 151.44-18 150.69-20.05 150.01-21.75 149.34-23.45 148.84-24.75 148.34-26.05 148.04-26.8Z" opacity="1" transform="matrix(1,0,0,1,0,0)" fill="#010536" class="undefined-text-0" data-fill-palette-color="quaternary" id="text-0"></path>
                                                            </svg>
                                                         </g>
                                                      </svg>
                                                   </g>
                                                   <g transform="matrix(1,0,0,1,0,56.44255429521531)">
                                                      <svg viewBox="0 0 213.1584412271571 15.238965048361305" height="15.238965048361305" width="213.1584412271571">
                                                         <g transform="matrix(1,0,0,1,0,0)">
                                                            <svg width="213.1584412271571" viewBox="1.9500000476837158 -33.939998626708984 482.1966552734375 34.47999954223633" height="15.238965048361305" data-palette-color="#010536">
                                                               <path d="M2.15-32.13L8.01-32.03Q9.47-32.03 11.47-32.13 13.48-32.23 14.89-32.23L14.89-32.23Q16.5-32.23 18.14-31.74 19.78-31.25 21.31-30.27 22.85-29.3 23.83-27.49 24.8-25.68 24.8-23.29L24.8-23.29Q24.8-21.88 24.19-20.24 23.58-18.6 22.41-17.07 21.24-15.53 19.26-14.53 17.29-13.53 14.84-13.53L14.84-13.53Q12.11-13.53 11.08-14.89L11.08-14.89Q10.79-15.23 10.94-16.02L10.94-16.02Q10.99-16.21 11.08-16.16L11.08-16.16Q12.55-15.63 14.36-15.63L14.36-15.63Q16.8-15.63 18.55-17.68 20.31-19.73 20.31-22.56L20.31-22.56Q20.31-26.03 18.8-28.05 17.29-30.08 14.11-30.08L14.11-30.08Q11.91-30.08 10.69-29.74L10.69-29.74Q10.45-29.69 10.35-29.37 10.25-29.05 10.18-27.88 10.11-26.71 10.11-24.37L10.11-24.37 10.11-6.93Q10.11-3.66 10.5-2.69L10.5-2.69Q10.74-2.05 12.23-1.66 13.72-1.27 14.36-1.27L14.36-1.27Q14.55-1.27 14.55-0.59L14.55-0.59Q14.55-0.15 14.45 0.15L14.45 0.15Q9.57-0.1 8.11-0.1L8.11-0.1 2.15 0.15Q2 0 2-0.73L2-0.73Q2-1.37 2.15-1.37L2.15-1.37Q2.83-1.37 4.05-1.66 5.27-1.95 5.52-2.39L5.52-2.39Q5.86-2.98 5.86-6.98L5.86-6.98 5.86-25.44Q5.86-28.32 5.52-29.64L5.52-29.64Q5.37-30.03 4.08-30.37 2.78-30.71 2.15-30.71L2.15-30.71Q1.95-30.71 1.95-31.3L1.95-31.3Q1.95-31.93 2.15-32.13L2.15-32.13ZM38.48-19.43L38.48-19.43Q35.89-19.43 34.25-17.07 32.62-14.7 32.62-11.28L32.62-11.28Q32.62-7.28 34.69-4.42 36.77-1.56 39.55-1.56L39.55-1.56Q42.14-1.56 43.8-4 45.46-6.45 45.46-9.86L45.46-9.86Q45.46-13.82 43.36-16.63 41.26-19.43 38.48-19.43ZM39.01-21.34L39.01-21.34Q43.41-21.34 46.53-18.16 49.66-14.99 49.66-10.55L49.66-10.55Q49.66-6.05 46.61-2.86 43.55 0.34 39.11 0.34 34.67 0.34 31.54-2.86 28.42-6.05 28.42-10.55L28.42-10.55Q28.42-15.09 31.45-18.21 34.47-21.34 39.01-21.34ZM55.76-5.66L55.76-5.66 55.76-26.81Q55.76-28.47 55.47-29.93L55.47-29.93Q55.22-30.71 52.98-30.71L52.98-30.71 52.54-30.71Q52.25-30.71 52.25-31.25L52.25-31.25Q52.25-32.03 52.54-32.03L52.54-32.03Q54-32.18 55.25-32.42 56.49-32.67 57.2-32.91 57.91-33.15 58.4-33.37 58.89-33.59 59.13-33.74L59.13-33.74 59.33-33.89 59.42-33.89Q59.62-33.89 59.81-33.62 60.01-33.35 60.06-33.11L60.06-33.11Q59.52-31.54 59.52-28.86L59.52-28.86 59.52-6.59Q59.52-3.76 59.91-2.25L59.91-2.25Q60.01-1.9 61.18-1.59 62.35-1.27 62.84-1.27L62.84-1.27Q62.99-1.27 63.04-0.68 63.09-0.1 62.99 0.15L62.99 0.15Q58.11-0.1 57.76-0.1L57.76-0.1Q57.47-0.1 52.44 0.15L52.44 0.15Q52.25-0.05 52.25-0.66 52.25-1.27 52.44-1.27L52.44-1.27Q53.03-1.27 54.17-1.59 55.32-1.9 55.42-2.25L55.42-2.25Q55.76-3.66 55.76-5.66ZM68.63-27.22Q67.92-27.93 67.92-28.96 67.92-29.98 68.63-30.69 69.34-31.4 70.36-31.4 71.39-31.4 72.09-30.69 72.8-29.98 72.8-28.96 72.8-27.93 72.09-27.22 71.39-26.51 70.36-26.51 69.34-26.51 68.63-27.22ZM72.61-16.65L72.61-6.59Q72.61-3.76 73-2.25L73-2.25Q73.1-1.9 74.27-1.59 75.44-1.27 75.93-1.27L75.93-1.27Q76.07-1.27 76.12-0.68 76.17-0.1 76.07 0.15L76.07 0.15Q71.19-0.1 70.85-0.1 70.51-0.1 65.53 0.15L65.53 0.15Q65.33-0.05 65.33-0.66 65.33-1.27 65.53-1.27L65.53-1.27Q66.11-1.27 67.26-1.59 68.41-1.9 68.51-2.25L68.51-2.25Q68.85-3.66 68.85-5.66L68.85-5.66 68.85-14.89Q68.85-16.8 68.16-17.53L68.16-17.53Q67.68-18.12 66.97-18.33 66.26-18.55 65.8-18.55 65.33-18.55 65.33-18.65L65.33-18.65Q65.33-19.82 65.63-19.87L65.63-19.87Q70.8-20.65 72.36-21.14L72.36-21.14 72.46-21.19Q72.56-21.19 72.61-21.19L72.61-21.19Q72.8-21.19 72.85-20.78 72.9-20.36 72.85-20.17L72.85-20.17Q72.61-18.21 72.61-16.65L72.61-16.65ZM86.23-21.34L86.23-21.34Q87.3-21.34 88.94-21.07 90.58-20.8 91.21-20.7L91.21-20.7Q91.7-18.46 91.8-15.72L91.8-15.72Q91.8-15.48 91.16-15.48L91.16-15.48Q90.48-15.48 90.43-15.82L90.43-15.82Q90.19-17.19 89.04-18.41 87.89-19.63 86.43-19.63L86.43-19.63Q82.91-19.63 82.91-16.75L82.91-16.75Q82.91-16.02 83.11-15.45 83.3-14.89 83.86-14.38 84.42-13.87 84.72-13.65 85.01-13.43 86.01-12.87 87.01-12.3 87.26-12.16L87.26-12.16Q87.45-12.06 88.4-11.5 89.36-10.94 89.75-10.69 90.14-10.45 90.89-9.86 91.65-9.28 91.99-8.81 92.33-8.35 92.65-7.64 92.97-6.93 92.97-6.2L92.97-6.2Q92.97-3.32 90.72-1.39 88.48 0.54 85.45 0.54L85.45 0.54Q84.42 0.54 83.57 0.42 82.71 0.29 81.54 0 80.37-0.29 79.74-0.39L79.74-0.39Q79.44-1.17 79.17-2.83 78.91-4.49 78.91-5.47L78.91-5.47Q79.3-5.76 79.49-5.76L79.49-5.76Q80.22-5.76 80.27-5.47L80.27-5.47Q80.57-4 82.1-2.61 83.64-1.22 85.45-1.22L85.45-1.22Q87.01-1.22 88.01-2.08 89.01-2.93 89.01-4.54L89.01-4.54Q89.01-5.37 88.7-6.08 88.38-6.79 87.67-7.35 86.96-7.91 86.35-8.28 85.74-8.64 84.62-9.23 83.5-9.81 82.96-10.16L82.96-10.16Q79.15-12.35 79.15-15.38L79.15-15.38Q79.15-18.02 81.27-19.68 83.4-21.34 86.23-21.34ZM109.67-21.39L109.67-21.39Q112.94-21.39 114.36-19.04 115.77-16.7 115.77-11.82L115.77-11.82 115.77-6.54Q115.77-3.76 116.16-2.25L116.16-2.25Q116.26-1.9 117.43-1.59 118.6-1.27 119.09-1.27L119.09-1.27Q119.24-1.27 119.29-0.68 119.34-0.1 119.24 0.15L119.24 0.15Q114.36-0.1 114.01-0.1L114.01-0.1Q113.87-0.1 108.89 0.15L108.89 0.15Q108.69-0.05 108.69-0.66 108.69-1.27 108.89-1.27L108.89-1.27Q109.47-1.27 110.52-1.59 111.57-1.9 111.67-2.25L111.67-2.25Q112.01-3.66 112.01-5.66L112.01-5.66 112.01-10.84Q112.01-15.33 110.77-16.87 109.52-18.41 106.93-18.41L106.93-18.41Q105.47-18.41 104.03-17.26 102.59-16.11 102.59-15.23L102.59-15.23 102.59-6.59Q102.59-3.76 102.98-2.25L102.98-2.25Q103.08-1.9 104.25-1.59 105.42-1.27 105.91-1.27L105.91-1.27Q106.05-1.27 106.1-0.68 106.15-0.1 106.05 0.15L106.05 0.15Q101.17-0.1 100.83-0.1L100.83-0.1Q100.54-0.1 95.51 0.15L95.51 0.15Q95.31-0.05 95.31-0.66 95.31-1.27 95.51-1.27L95.51-1.27Q96.09-1.27 97.24-1.59 98.39-1.9 98.49-2.25L98.49-2.25Q98.83-3.66 98.83-5.62L98.83-5.62 98.83-26.81Q98.83-28.47 98.54-29.93L98.54-29.93Q98.29-30.71 96.04-30.71L96.04-30.71 95.61-30.71Q95.31-30.71 95.31-31.25L95.31-31.25Q95.31-32.03 95.61-32.03L95.61-32.03Q97.07-32.18 98.32-32.42 99.56-32.67 100.27-32.91 100.98-33.15 101.46-33.37 101.95-33.59 102.15-33.74L102.15-33.74 102.39-33.89 102.49-33.89Q102.69-33.89 102.88-33.62 103.08-33.35 103.13-33.11L103.13-33.11Q102.59-31.54 102.59-28.86L102.59-28.86 102.59-18.16Q102.59-17.97 102.69-17.97L102.69-17.97Q102.73-17.97 102.83-18.07L102.83-18.07Q103.91-19.24 105.88-20.31 107.86-21.39 109.67-21.39ZM131.3-19.48L131.3-19.48Q128.76-19.48 127.42-17.31 126.07-15.14 126.07-13.72L126.07-13.72Q126.07-13.38 126.37-13.38L126.37-13.38 135.89-13.38Q136.13-13.38 136.13-13.87L136.13-13.87Q136.13-15.43 134.81-17.46 133.5-19.48 131.3-19.48ZM131.79-21.29L131.79-21.29Q134.03-21.29 135.74-20.43 137.45-19.58 138.35-18.24 139.26-16.89 139.67-15.5 140.09-14.11 140.09-12.74L140.09-12.74Q140.09-11.77 139.79-11.55 139.5-11.33 138.67-11.33L138.67-11.33 126.37-11.33Q125.98-11.33 125.98-11.08L125.98-11.08Q125.98-8.01 127.83-5.42 129.69-2.83 133.2-2.83L133.2-2.83Q134.23-2.83 135.16-3.03 136.08-3.22 136.74-3.49 137.4-3.76 137.87-4.03 138.33-4.3 138.67-4.54L138.67-4.54 139.01-4.79Q139.31-4.79 139.31-4.15L139.31-4.15Q139.31-3.76 139.01-3.27L139.01-3.27Q138.04-1.9 136.13-0.81 134.23 0.29 131.98 0.29L131.98 0.29Q127.93 0.29 125.02-2.76 122.12-5.81 122.12-10.21L122.12-10.21Q122.12-15.33 124.88-18.31 127.64-21.29 131.79-21.29ZM153.42-19.43L153.42-19.43Q150.59-19.43 148.97-16.89 147.36-14.36 147.36-10.99L147.36-10.99Q147.36-7.42 149.27-4.81 151.17-2.2 154.54-2.2L154.54-2.2Q156.2-2.2 157.13-2.95 158.06-3.71 158.06-4.98L158.06-4.98 158.06-16.6Q158.06-17.63 156.96-18.53 155.86-19.43 153.42-19.43ZM154.05-21.48L154.05-21.48Q156.15-21.48 157.71-20.65L157.71-20.65Q158.06-20.65 158.06-21.53L158.06-21.53 158.06-26.81Q158.06-28.47 157.76-29.93L157.76-29.93Q157.52-30.71 155.27-30.71L155.27-30.71 154.83-30.71Q154.54-30.71 154.54-31.25L154.54-31.25Q154.54-32.03 154.83-32.03L154.83-32.03Q156.3-32.18 157.54-32.42 158.79-32.67 159.5-32.91 160.21-33.15 160.69-33.37 161.18-33.59 161.43-33.74L161.43-33.74 161.62-33.89 161.72-33.89Q161.91-33.89 162.11-33.62 162.3-33.35 162.35-33.11L162.35-33.11Q161.82-31.54 161.82-28.86L161.82-28.86 161.82-6.88Q161.82-4.54 162.11-3.17L162.11-3.17Q162.21-2.83 162.65-2.64 163.09-2.44 163.55-2.39 164.01-2.34 164.45-2.34L164.45-2.34 164.89-2.29Q165.04-2.25 165.04-1.71L165.04-1.71Q165.04-0.98 164.75-0.98L164.75-0.98Q164.01-0.93 163.11-0.78 162.21-0.63 161.4-0.46 160.6-0.29 159.91-0.12 159.23 0.05 158.79 0.2L158.79 0.2 158.35 0.29Q158.06 0.29 158.06-0.54L158.06-0.54 158.06-1.12Q158.06-1.42 157.86-1.32L157.86-1.32Q155.13 0.2 152.69 0.2L152.69 0.2Q148.63 0.2 145.9-2.69 143.16-5.57 143.16-9.57L143.16-9.57Q143.16-14.31 146.51-17.9 149.85-21.48 154.05-21.48ZM178.91-32.13L184.77-32.03Q186.23-32.03 188.23-32.13 190.23-32.23 191.65-32.23L191.65-32.23Q193.26-32.23 194.9-31.74 196.53-31.25 198.07-30.27 199.61-29.3 200.59-27.49 201.56-25.68 201.56-23.29L201.56-23.29Q201.56-21.88 200.95-20.24 200.34-18.6 199.17-17.07 198-15.53 196.02-14.53 194.04-13.53 191.6-13.53L191.6-13.53Q188.87-13.53 187.84-14.89L187.84-14.89Q187.55-15.23 187.7-16.02L187.7-16.02Q187.74-16.21 187.84-16.16L187.84-16.16Q189.31-15.63 191.11-15.63L191.11-15.63Q193.55-15.63 195.31-17.68 197.07-19.73 197.07-22.56L197.07-22.56Q197.07-26.03 195.56-28.05 194.04-30.08 190.87-30.08L190.87-30.08Q188.67-30.08 187.45-29.74L187.45-29.74Q187.21-29.69 187.11-29.37 187.01-29.05 186.94-27.88 186.87-26.71 186.87-24.37L186.87-24.37 186.87-6.93Q186.87-3.66 187.26-2.69L187.26-2.69Q187.5-2.05 188.99-1.66 190.48-1.27 191.11-1.27L191.11-1.27Q191.31-1.27 191.31-0.59L191.31-0.59Q191.31-0.15 191.21 0.15L191.21 0.15Q186.33-0.1 184.86-0.1L184.86-0.1 178.91 0.15Q178.76 0 178.76-0.73L178.76-0.73Q178.76-1.37 178.91-1.37L178.91-1.37Q179.59-1.37 180.81-1.66 182.03-1.95 182.28-2.39L182.28-2.39Q182.62-2.98 182.62-6.98L182.62-6.98 182.62-25.44Q182.62-28.32 182.28-29.64L182.28-29.64Q182.13-30.03 180.83-30.37 179.54-30.71 178.91-30.71L178.91-30.71Q178.71-30.71 178.71-31.3L178.71-31.3Q178.71-31.93 178.91-32.13L178.91-32.13ZM208.23-27.22Q207.52-27.93 207.52-28.96 207.52-29.98 208.23-30.69 208.94-31.4 209.96-31.4 210.99-31.4 211.69-30.69 212.4-29.98 212.4-28.96 212.4-27.93 211.69-27.22 210.99-26.51 209.96-26.51 208.94-26.51 208.23-27.22ZM212.21-16.65L212.21-6.59Q212.21-3.76 212.6-2.25L212.6-2.25Q212.7-1.9 213.87-1.59 215.04-1.27 215.53-1.27L215.53-1.27Q215.67-1.27 215.72-0.68 215.77-0.1 215.67 0.15L215.67 0.15Q210.79-0.1 210.45-0.1 210.11-0.1 205.13 0.15L205.13 0.15Q204.93-0.05 204.93-0.66 204.93-1.27 205.13-1.27L205.13-1.27Q205.71-1.27 206.86-1.59 208.01-1.9 208.11-2.25L208.11-2.25Q208.45-3.66 208.45-5.66L208.45-5.66 208.45-14.89Q208.45-16.8 207.76-17.53L207.76-17.53Q207.28-18.12 206.57-18.33 205.86-18.55 205.4-18.55 204.93-18.55 204.93-18.65L204.93-18.65Q204.93-19.82 205.22-19.87L205.22-19.87Q210.4-20.65 211.96-21.14L211.96-21.14 212.06-21.19Q212.16-21.19 212.21-21.19L212.21-21.19Q212.4-21.19 212.45-20.78 212.5-20.36 212.45-20.17L212.45-20.17Q212.21-18.21 212.21-16.65L212.21-16.65ZM217.29-19.78L217.14-20.51Q217.24-21 217.33-21.19L217.33-21.19Q222.07-20.95 222.22-20.95L222.22-20.95Q222.31-20.95 227.34-21.19L227.34-21.19Q227.39-21 227.39-20.61L227.39-20.61Q227.39-19.78 227.25-19.78L227.25-19.78Q225.29-19.78 225.29-18.95L225.29-18.95Q225.29-18.75 225.54-18.36L225.54-18.36 228.71-13.43Q229.05-13.96 229.74-14.97 230.42-15.97 230.83-16.58 231.25-17.19 231.59-17.87 231.93-18.55 231.93-18.9L231.93-18.9Q231.93-19.34 231.37-19.51 230.81-19.68 230.1-19.7 229.39-19.73 229.3-19.78L229.3-19.78Q229.15-19.82 229.15-20.56L229.15-20.56Q229.15-21 229.3-21.19L229.3-21.19Q234.28-20.95 234.42-20.95 234.57-20.95 238.87-21.19L238.87-21.19Q238.96-20.7 238.96-20.51L238.96-20.51Q238.96-19.78 238.82-19.78L238.82-19.78Q235.6-19.38 234.57-18.12L234.57-18.12 229.88-12.01Q229.79-11.87 229.79-11.67L229.79-11.67Q229.79-11.43 229.93-11.13L229.93-11.13 235.16-3.42Q236.47-1.46 239.26-1.27L239.26-1.27Q239.4-1.27 239.4-0.59L239.4-0.59Q239.4-0.1 239.21 0.15L239.21 0.15Q234.67-0.1 234.62-0.1L234.62-0.1Q234.47-0.1 229.2 0.15L229.2 0.15Q229.1-0.34 229.1-0.49L229.1-0.49Q229.1-1.27 229.25-1.27L229.25-1.27Q231.3-1.42 231.3-2.15L231.3-2.15Q231.3-2.25 231.2-2.44L231.2-2.44 227.49-8.3 224.12-3.27Q223.78-2.73 223.78-2.34L223.78-2.34Q223.78-1.46 226.22-1.27L226.22-1.27Q226.37-1.27 226.46-1.27L226.46-1.27Q226.61-1.27 226.61-0.54L226.61-0.54Q226.61-0.05 226.42 0.15L226.42 0.15Q221.68-0.1 221.53-0.1L221.53-0.1Q221.44-0.1 216.8 0.15L216.8 0.15Q216.7-0.24 216.7-0.54L216.7-0.54Q216.7-1.27 216.89-1.27L216.89-1.27Q220.17-1.76 221.29-3.32L221.29-3.32 226.37-10.11Q226.37-10.16 226.39-10.25 226.42-10.35 226.42-10.4L226.42-10.4Q226.42-10.5 226.32-10.69L226.32-10.69 221.29-18.07Q220.85-18.7 219.48-19.24 218.12-19.78 217.29-19.78L217.29-19.78ZM250.29-19.48L250.29-19.48Q247.75-19.48 246.41-17.31 245.07-15.14 245.07-13.72L245.07-13.72Q245.07-13.38 245.36-13.38L245.36-13.38 254.88-13.38Q255.13-13.38 255.13-13.87L255.13-13.87Q255.13-15.43 253.81-17.46 252.49-19.48 250.29-19.48ZM250.78-21.29L250.78-21.29Q253.03-21.29 254.74-20.43 256.45-19.58 257.35-18.24 258.25-16.89 258.67-15.5 259.08-14.11 259.08-12.74L259.08-12.74Q259.08-11.77 258.79-11.55 258.5-11.33 257.67-11.33L257.67-11.33 245.36-11.33Q244.97-11.33 244.97-11.08L244.97-11.08Q244.97-8.01 246.83-5.42 248.68-2.83 252.2-2.83L252.2-2.83Q253.22-2.83 254.15-3.03 255.08-3.22 255.74-3.49 256.4-3.76 256.86-4.03 257.32-4.3 257.67-4.54L257.67-4.54 258.01-4.79Q258.3-4.79 258.3-4.15L258.3-4.15Q258.3-3.76 258.01-3.27L258.01-3.27Q257.03-1.9 255.13-0.81 253.22 0.29 250.98 0.29L250.98 0.29Q246.92 0.29 244.02-2.76 241.11-5.81 241.11-10.21L241.11-10.21Q241.11-15.33 243.87-18.31 246.63-21.29 250.78-21.29ZM264.55-5.66L264.55-5.66 264.55-26.81Q264.55-28.47 264.26-29.93L264.26-29.93Q264.01-30.71 261.77-30.71L261.77-30.71 261.33-30.71Q261.04-30.71 261.04-31.25L261.04-31.25Q261.04-32.03 261.33-32.03L261.33-32.03Q262.79-32.18 264.04-32.42 265.28-32.67 265.99-32.91 266.7-33.15 267.19-33.37 267.68-33.59 267.92-33.74L267.92-33.74 268.12-33.89 268.21-33.89Q268.41-33.89 268.6-33.62 268.8-33.35 268.85-33.11L268.85-33.11Q268.31-31.54 268.31-28.86L268.31-28.86 268.31-6.59Q268.31-3.76 268.7-2.25L268.7-2.25Q268.8-1.9 269.97-1.59 271.14-1.27 271.63-1.27L271.63-1.27Q271.78-1.27 271.83-0.68 271.88-0.1 271.78 0.15L271.78 0.15Q266.89-0.1 266.55-0.1L266.55-0.1Q266.26-0.1 261.23 0.15L261.23 0.15Q261.04-0.05 261.04-0.66 261.04-1.27 261.23-1.27L261.23-1.27Q261.82-1.27 262.96-1.59 264.11-1.9 264.21-2.25L264.21-2.25Q264.55-3.66 264.55-5.66ZM285.89-32.13L291.75-32.03Q293.21-32.03 295.21-32.13 297.22-32.23 298.63-32.23L298.63-32.23Q300.24-32.23 301.88-31.74 303.52-31.25 305.05-30.27 306.59-29.3 307.57-27.49 308.54-25.68 308.54-23.29L308.54-23.29Q308.54-21.88 307.93-20.24 307.32-18.6 306.15-17.07 304.98-15.53 303-14.53 301.03-13.53 298.58-13.53L298.58-13.53Q295.85-13.53 294.82-14.89L294.82-14.89Q294.53-15.23 294.68-16.02L294.68-16.02Q294.73-16.21 294.82-16.16L294.82-16.16Q296.29-15.63 298.1-15.63L298.1-15.63Q300.54-15.63 302.29-17.68 304.05-19.73 304.05-22.56L304.05-22.56Q304.05-26.03 302.54-28.05 301.03-30.08 297.85-30.08L297.85-30.08Q295.65-30.08 294.43-29.74L294.43-29.74Q294.19-29.69 294.09-29.37 293.99-29.05 293.92-27.88 293.85-26.71 293.85-24.37L293.85-24.37 293.85-6.93Q293.85-3.66 294.24-2.69L294.24-2.69Q294.48-2.05 295.97-1.66 297.46-1.27 298.1-1.27L298.1-1.27Q298.29-1.27 298.29-0.59L298.29-0.59Q298.29-0.15 298.19 0.15L298.19 0.15Q293.31-0.1 291.85-0.1L291.85-0.1 285.89 0.15Q285.74 0 285.74-0.73L285.74-0.73Q285.74-1.37 285.89-1.37L285.89-1.37Q286.57-1.37 287.79-1.66 289.01-1.95 289.26-2.39L289.26-2.39Q289.6-2.98 289.6-6.98L289.6-6.98 289.6-25.44Q289.6-28.32 289.26-29.64L289.26-29.64Q289.11-30.03 287.82-30.37 286.52-30.71 285.89-30.71L285.89-30.71Q285.69-30.71 285.69-31.3L285.69-31.3Q285.69-31.93 285.89-32.13L285.89-32.13ZM321.34-19.48L321.34-19.48Q318.8-19.48 317.46-17.31 316.11-15.14 316.11-13.72L316.11-13.72Q316.11-13.38 316.41-13.38L316.41-13.38 325.93-13.38Q326.17-13.38 326.17-13.87L326.17-13.87Q326.17-15.43 324.85-17.46 323.54-19.48 321.34-19.48ZM321.83-21.29L321.83-21.29Q324.07-21.29 325.78-20.43 327.49-19.58 328.39-18.24 329.3-16.89 329.71-15.5 330.13-14.11 330.13-12.74L330.13-12.74Q330.13-11.77 329.83-11.55 329.54-11.33 328.71-11.33L328.71-11.33 316.41-11.33Q316.02-11.33 316.02-11.08L316.02-11.08Q316.02-8.01 317.87-5.42 319.73-2.83 323.24-2.83L323.24-2.83Q324.27-2.83 325.2-3.03 326.12-3.22 326.78-3.49 327.44-3.76 327.91-4.03 328.37-4.3 328.71-4.54L328.71-4.54 329.05-4.79Q329.35-4.79 329.35-4.15L329.35-4.15Q329.35-3.76 329.05-3.27L329.05-3.27Q328.08-1.9 326.17-0.81 324.27 0.29 322.02 0.29L322.02 0.29Q317.97 0.29 315.06-2.76 312.16-5.81 312.16-10.21L312.16-10.21Q312.16-15.33 314.92-18.31 317.68-21.29 321.83-21.29ZM345.65-21.34L345.65-21.34Q348.54-21.34 349.46-19.92L349.46-19.92Q349.46-18.21 348.93-17.43 348.39-16.65 347.61-16.65L347.61-16.65Q346.73-16.65 346-17.48 345.26-18.31 343.99-18.31L343.99-18.31Q342.48-18.31 341.36-16.89 340.23-15.48 340.23-13.92L340.23-13.92 340.23-6.59Q340.23-3.76 340.63-2.25L340.63-2.25Q340.72-1.9 341.92-1.59 343.12-1.27 343.6-1.27L343.6-1.27Q343.75-1.27 343.8-0.68 343.85-0.1 343.75 0.15L343.75 0.15Q338.87-0.1 338.48-0.1L338.48-0.1Q338.18-0.1 333.15 0.15L333.15 0.15Q332.96-0.05 332.96-0.66 332.96-1.27 333.15-1.27L333.15-1.27Q333.74-1.27 334.89-1.59 336.04-1.9 336.13-2.25L336.13-2.25Q336.47-3.66 336.47-5.66L336.47-5.66 336.47-14.89Q336.47-16.8 335.79-17.53L335.79-17.53Q335.3-18.12 334.59-18.33 333.89-18.55 333.42-18.55 332.96-18.55 332.96-18.65L332.96-18.65Q332.96-19.82 333.25-19.87L333.25-19.87Q338.43-20.65 339.99-21.14L339.99-21.14Q340.04-21.14 340.14-21.17 340.23-21.19 340.23-21.19L340.23-21.19Q340.43-21.19 340.48-20.78 340.53-20.36 340.48-20.17L340.48-20.17 340.19-17.72Q341.06-19.04 342.6-20.19 344.14-21.34 345.65-21.34ZM364.4-33.94L364.4-33.94Q367.92-33.94 369.04-32.03L369.04-32.03Q369.04-28.96 367.29-28.96L367.29-28.96Q366.65-28.96 366.06-29.71 365.48-30.47 364.72-31.25 363.96-32.03 362.89-32.03L362.89-32.03Q360.74-32.03 359.57-29.39 358.4-26.76 358.4-23.19L358.4-23.19 358.4-20.7Q358.4-20.46 358.64-20.46L358.64-20.46 364.06-20.46Q364.31-20.46 364.31-20.12L364.31-20.12Q364.31-19.34 363.72-18.16L363.72-18.16 358.69-18.16Q358.4-18.16 358.4-17.87L358.4-17.87 358.4-6.59Q358.4-3.96 358.84-2.25L358.84-2.25Q358.94-1.9 360.03-1.59 361.13-1.27 361.57-1.27L361.57-1.27Q361.72-1.27 361.77-0.68 361.82-0.1 361.72 0.15L361.72 0.15Q356.84-0.1 356.49-0.1L356.49-0.1Q356.35-0.1 351.37 0.15L351.37 0.15Q351.27 0.05 351.22-0.32 351.17-0.68 351.22-0.98 351.27-1.27 351.37-1.27L351.37-1.27Q351.95-1.27 353.03-1.59 354.1-1.9 354.2-2.25L354.2-2.25Q354.69-4.15 354.69-6.59L354.69-6.59 354.69-17.82Q354.69-18.16 354.44-18.16L354.44-18.16 351.86-18.16Q351.71-18.16 351.71-18.46L351.71-18.46Q351.71-18.9 352.49-19.68 353.27-20.46 354.15-20.46L354.15-20.46 354.44-20.46Q354.69-20.46 354.69-20.75L354.69-20.75 354.69-21.39Q354.69-26.51 357.74-30.22 360.79-33.94 364.4-33.94ZM375.59-19.48L375.59-19.48Q373.05-19.48 371.7-17.31 370.36-15.14 370.36-13.72L370.36-13.72Q370.36-13.38 370.65-13.38L370.65-13.38 380.18-13.38Q380.42-13.38 380.42-13.87L380.42-13.87Q380.42-15.43 379.1-17.46 377.78-19.48 375.59-19.48ZM376.07-21.29L376.07-21.29Q378.32-21.29 380.03-20.43 381.74-19.58 382.64-18.24 383.54-16.89 383.96-15.5 384.38-14.11 384.38-12.74L384.38-12.74Q384.38-11.77 384.08-11.55 383.79-11.33 382.96-11.33L382.96-11.33 370.65-11.33Q370.26-11.33 370.26-11.08L370.26-11.08Q370.26-8.01 372.12-5.42 373.97-2.83 377.49-2.83L377.49-2.83Q378.52-2.83 379.44-3.03 380.37-3.22 381.03-3.49 381.69-3.76 382.15-4.03 382.62-4.3 382.96-4.54L382.96-4.54 383.3-4.79Q383.59-4.79 383.59-4.15L383.59-4.15Q383.59-3.76 383.3-3.27L383.3-3.27Q382.32-1.9 380.42-0.81 378.52 0.29 376.27 0.29L376.27 0.29Q372.22 0.29 369.31-2.76 366.41-5.81 366.41-10.21L366.41-10.21Q366.41-15.33 369.17-18.31 371.92-21.29 376.07-21.29ZM396.88-21.29L396.88-21.29Q402.25-21.29 404.3-18.8L404.3-18.8Q404.3-15.53 402.49-15.53L402.49-15.53Q401.66-15.53 401.22-15.89 400.78-16.26 400.1-17.24L400.1-17.24Q398.58-19.48 396.48-19.48L396.48-19.48Q394.48-19.48 392.85-17.58 391.21-15.67 391.21-11.91L391.21-11.91Q391.21-8.01 393.14-5.42 395.07-2.83 398.49-2.83L398.49-2.83Q399.51-2.83 400.44-3.03 401.37-3.22 402.03-3.49 402.69-3.76 403.15-4.03 403.61-4.3 403.96-4.54L403.96-4.54 404.3-4.79Q404.59-4.79 404.59-4.15L404.59-4.15Q404.59-3.76 404.3-3.27L404.3-3.27Q403.32-1.9 401.42-0.81 399.51 0.29 397.27 0.29L397.27 0.29Q393.21 0.29 390.31-2.76 387.4-5.81 387.4-10.21L387.4-10.21Q387.4-14.7 389.84-17.99 392.29-21.29 396.88-21.29ZM409.28-5.86L409.28-18.26 406.45-18.26Q406.2-18.26 406.2-19.29L406.2-19.29Q406.2-19.58 406.25-19.63L406.25-19.63Q407.67-20.26 409.33-22.22L409.33-22.22Q409.86-22.85 410.38-23.66 410.89-24.46 411.23-25.05 411.57-25.63 411.57-25.68L411.57-25.68Q413.04-25.68 413.04-25.44L413.04-25.44 413.04-20.61Q414.31-20.61 416.89-20.58 419.48-20.56 419.63-20.56L419.63-20.56Q420.02-20.56 420.02-20.12L420.02-20.12Q420.02-19.24 419.53-18.26L419.53-18.26 413.04-18.26 413.04-6.3Q413.04-4.35 414.04-3.17 415.04-2 416.65-2L416.65-2Q418.12-2 419.68-2.93L419.68-2.93Q419.82-3.03 420.12-2.51 420.41-2 420.36-1.95L420.36-1.95Q419.63-1.17 418.12-0.42 416.6 0.34 414.99 0.34L414.99 0.34Q412.55 0.34 410.91-1.27 409.28-2.88 409.28-5.86L409.28-5.86ZM425.56-27.22Q424.85-27.93 424.85-28.96 424.85-29.98 425.56-30.69 426.27-31.4 427.29-31.4 428.32-31.4 429.03-30.69 429.74-29.98 429.74-28.96 429.74-27.93 429.03-27.22 428.32-26.51 427.29-26.51 426.27-26.51 425.56-27.22ZM429.54-16.65L429.54-6.59Q429.54-3.76 429.93-2.25L429.93-2.25Q430.03-1.9 431.2-1.59 432.37-1.27 432.86-1.27L432.86-1.27Q433.01-1.27 433.06-0.68 433.11-0.1 433.01 0.15L433.01 0.15Q428.13-0.1 427.78-0.1 427.44-0.1 422.46 0.15L422.46 0.15Q422.27-0.05 422.27-0.66 422.27-1.27 422.46-1.27L422.46-1.27Q423.05-1.27 424.19-1.59 425.34-1.9 425.44-2.25L425.44-2.25Q425.78-3.66 425.78-5.66L425.78-5.66 425.78-14.89Q425.78-16.8 425.1-17.53L425.1-17.53Q424.61-18.12 423.9-18.33 423.19-18.55 422.73-18.55 422.27-18.55 422.27-18.65L422.27-18.65Q422.27-19.82 422.56-19.87L422.56-19.87Q427.73-20.65 429.3-21.14L429.3-21.14 429.39-21.19Q429.49-21.19 429.54-21.19L429.54-21.19Q429.74-21.19 429.79-20.78 429.83-20.36 429.79-20.17L429.79-20.17Q429.54-18.21 429.54-16.65L429.54-16.65ZM445.7-19.43L445.7-19.43Q443.12-19.43 441.48-17.07 439.84-14.7 439.84-11.28L439.84-11.28Q439.84-7.28 441.92-4.42 443.99-1.56 446.78-1.56L446.78-1.56Q449.37-1.56 451.03-4 452.69-6.45 452.69-9.86L452.69-9.86Q452.69-13.82 450.59-16.63 448.49-19.43 445.7-19.43ZM446.24-21.34L446.24-21.34Q450.63-21.34 453.76-18.16 456.88-14.99 456.88-10.55L456.88-10.55Q456.88-6.05 453.83-2.86 450.78 0.34 446.34 0.34 441.89 0.34 438.77-2.86 435.64-6.05 435.64-10.55L435.64-10.55Q435.64-15.09 438.67-18.21 441.7-21.34 446.24-21.34ZM474.46-21.39L474.46-21.39Q477.88-21.39 479.25-18.95 480.62-16.5 480.62-11.04L480.62-11.04 480.62-6.59Q480.62-3.76 481.01-2.25L481.01-2.25Q481.1-1.9 482.28-1.59 483.45-1.27 483.94-1.27L483.94-1.27Q484.08-1.27 484.13-0.68 484.18-0.1 484.08 0.15L484.08 0.15Q479.2-0.1 478.86-0.1L478.86-0.1Q478.76-0.1 473.73 0.15L473.73 0.15Q473.54-0.05 473.54-0.66 473.54-1.27 473.73-1.27L473.73-1.27Q474.32-1.27 475.37-1.59 476.42-1.9 476.51-2.25L476.51-2.25Q476.86-3.66 476.86-5.66L476.86-5.66 476.86-10.55Q476.86-15.09 475.68-16.75 474.51-18.41 471.88-18.41L471.88-18.41Q470.31-18.41 468.87-17.26 467.43-16.11 467.43-15.19L467.43-15.19 467.43-6.59Q467.43-3.76 467.82-2.25L467.82-2.25Q467.92-1.9 469.09-1.59 470.26-1.27 470.75-1.27L470.75-1.27Q470.9-1.27 470.95-0.68 471-0.1 470.9 0.15L470.9 0.15Q466.02-0.1 465.67-0.1L465.67-0.1Q465.38-0.1 460.35 0.15L460.35 0.15Q460.16-0.05 460.16-0.66 460.16-1.27 460.35-1.27L460.35-1.27Q460.94-1.27 462.08-1.59 463.23-1.9 463.33-2.25L463.33-2.25Q463.67-3.66 463.67-5.66L463.67-5.66 463.67-14.89Q463.67-16.8 462.99-17.53L462.99-17.53Q462.5-18.12 461.79-18.33 461.08-18.55 460.62-18.55 460.16-18.55 460.16-18.65L460.16-18.65Q460.16-19.82 460.45-19.87L460.45-19.87Q465.63-20.65 467.19-21.14L467.19-21.14Q467.24-21.14 467.33-21.17 467.43-21.19 467.43-21.19L467.43-21.19Q467.63-21.19 467.68-20.78 467.72-20.36 467.68-20.17L467.68-20.17Q467.48-18.8 467.48-18.21L467.48-18.21Q467.48-18.02 467.58-18.02L467.58-18.02Q467.63-18.02 467.72-18.12L467.72-18.12Q468.85-19.29 470.78-20.34 472.71-21.39 474.46-21.39Z" opacity="1" transform="matrix(1,0,0,1,0,0)" fill="#010536" class="undefined-text-1" data-fill-palette-color="quaternary" id="text-1"></path>
                                                            </svg>
                                                         </g>
                                                      </svg>
                                                   </g>
                                                </svg>
                                             </g>
                                          </svg>
                                       </g>
                                       <g transform="matrix(1,0,0,1,57.05022187767599,0)">
                                          <svg viewBox="0 0 99.05799747180514 99.06385973282289" height="99.06385973282289" width="99.05799747180514">
                                             <g>
                                                <svg xmlns="http://www.w3.org/2000/svg" xmlns:xlink="http://www.w3.org/1999/xlink" version="1.1" x="0" y="0" viewBox="8.085714340209961 8.098169326782227 83.796875 83.80183410644531" enable-background="new 0 0 100 100" xml:space="preserve" height="99.06385973282289" width="99.05799747180514" class="icon-icon-0" data-fill-palette-color="quaternary" id="icon-0">
                                                   <path d="M50 77.1c3.6 0 7.1-0.7 10.4-2.1 13.8-5.7 20.4-21.6 14.7-35.5C70.9 29.4 61 22.9 50 22.9c-3.6 0-7.1 0.7-10.4 2.1-13.8 5.7-20.4 21.6-14.7 35.5C29.1 70.6 39 77.1 50 77.1zM30.3 61.7h5.5c1.1 3.3 2.6 6.5 4.4 9.1C36.2 68.8 32.7 65.7 30.3 61.7zM71.7 42.6c1.7 5 1.6 10.2 0 14.9h-6c0.5-2.5 0.8-5.1 0.8-7.5 0-2.5-0.2-5-0.7-7.4H71.7zM62.2 50c0 2.4-0.3 5-1 7.5h-9V42.6h9.2C62 44.9 62.2 47.4 62.2 50zM48 72.2c-3.1-1.4-5.9-5.6-7.7-10.5H48V72.2zM52.3 72.2V61.7H60C58.1 66.7 55.3 70.9 52.3 72.2zM52.3 38.3V27.6c3.2 1.3 6.2 5.4 8 10.7H52.3zM48 27.6v10.7h-8C41.8 33 44.8 28.9 48 27.6zM48 42.6v14.9h-9c-0.6-2.5-1-5.1-1-7.5 0-2.5 0.3-5 0.8-7.4H48zM34.7 57.4h-6.3c-1.7-5-1.6-10.2 0-14.9h6.1C34 45 33.8 47.5 33.8 50 33.8 52.3 34.1 54.8 34.7 57.4zM60.2 70.5c0.6-0.9 1.3-1.9 1.8-3 0.9-1.8 1.8-3.7 2.4-5.8h5.2C67.5 65.4 64.3 68.5 60.2 70.5zM69.7 38.3h-4.9c-0.7-2.3-1.6-4.6-2.7-6.5-0.4-0.7-0.8-1.3-1.2-1.9C64.5 31.8 67.5 34.7 69.7 38.3zM39.5 29.6c-0.5 0.7-0.9 1.4-1.3 2.1-1.1 2-2 4.2-2.7 6.5h-5.2C32.5 34.7 35.6 31.7 39.5 29.6zM49.5 8.1c10.8-0.1 21.1 3.9 29 11.2l0-3.2c0-1.2 0.9-2.1 2.1-2.1 0 0 0 0 0 0 1.2 0 2.1 0.9 2.1 2.1l0.1 8.3c0 1.2-0.9 2.1-2.1 2.1l-8.3 0.1c0 0 0 0 0 0-1.2 0-2.1-0.9-2.1-2.1 0-1.2 0.9-2.1 2.1-2.1l3.2 0c-7.1-6.5-16.2-10.1-25.9-10-10.1 0.1-19.5 4.1-26.5 11.3C12.9 34.1 9.6 49.1 14.5 62.8c0.4 1.1-0.2 2.3-1.3 2.7-0.2 0.1-0.5 0.1-0.7 0.1-0.9 0-1.7-0.5-2-1.4C7.9 56.9 7.4 49 9 41.4c1.6-7.8 5.5-15 11.1-20.7C27.8 12.7 38.3 8.2 49.5 8.1zM76.9 76.3c10.2-10.4 13.4-25.4 8.5-39.1-0.4-1.1 0.2-2.3 1.3-2.7 1.1-0.4 2.3 0.2 2.7 1.3 2.6 7.3 3.2 15.2 1.6 22.8-1.6 7.8-5.5 15-11.1 20.7-7.8 8-18.3 12.5-29.5 12.6-0.2 0-0.3 0-0.5 0-10.7 0-20.7-4-28.5-11.2l0 3.2c0 1.2-0.9 2.1-2.1 2.1 0 0 0 0 0 0-1.2 0-2.1-0.9-2.1-2.1l-0.1-8.3c0-0.6 0.2-1.1 0.6-1.5 0.4-0.4 0.9-0.6 1.5-0.6l8.3-0.1c1.2 0 2.1 0.9 2.1 2.1 0 1.2-0.9 2.1-2.1 2.1l-3.2 0C39.4 91.4 62.7 90.9 76.9 76.3z" fill="#010536" data-fill-palette-color="quaternary"></path>
                                                </svg>
                                             </g>
                                          </svg>
                                       </g>
                                       <g></g>
                                    </svg>
                                 </g>
                              </svg>
                           </g>
                        </svg>
                     </g>
                  </svg>
               </g>
               <defs></defs>
            </svg>
            <rect width="342.85155851775386" height="342.85155851775386" fill="none" stroke="none" visibility="hidden"></rect>
         </g>
      </svg>
   </g>
</svg>